<?xml version="1.0" encoding="UTF-8" standalone="no"?>
<!-- Created with Inkscape (http://www.inkscape.org/) -->

<svg
   width="180"
   height="180"
   viewBox="0 0 180 180.00001"
   version="1.1"
   id="svg1"
   xml:space="preserve"
   inkscape:version="1.3 (0e150ed6c4, 2023-07-21)"
   sodipodi:docname="apple-touch-icon.svg"
   inkscape:export-filename="apple-touch-icon.png"
   inkscape:export-xdpi="96"
   inkscape:export-ydpi="96"
   xmlns:inkscape="http://www.inkscape.org/namespaces/inkscape"
   xmlns:sodipodi="http://sodipodi.sourceforge.net/DTD/sodipodi-0.dtd"
   xmlns:xlink="http://www.w3.org/1999/xlink"
   xmlns="http://www.w3.org/2000/svg"
   xmlns:svg="http://www.w3.org/2000/svg"><sodipodi:namedview
     id="namedview1"
     pagecolor="#ffffff"
     bordercolor="#000000"
     borderopacity="0.25"
     inkscape:showpageshadow="false"
     inkscape:pageopacity="0.0"
     inkscape:pagecheckerboard="true"
     inkscape:deskcolor="#1f1f1f"
     inkscape:document-units="px"
     showgrid="false"
     inkscape:zoom="2.7222222"
     inkscape:cx="90"
     inkscape:cy="90"
     inkscape:window-width="1280"
     inkscape:window-height="731"
     inkscape:window-x="0"
     inkscape:window-y="0"
     inkscape:window-maximized="1"
     inkscape:current-layer="layer1"><inkscape:grid
       id="grid2"
       units="px"
       originx="0"
       originy="0"
       spacingx="1"
       spacingy="1.0000001"
       empcolor="#0099e5"
       empopacity="0.30196078"
       color="#0099e5"
       opacity="0.14901961"
       empspacing="5"
       dotted="false"
       gridanglex="30"
       gridanglez="30"
       visible="false" /></sodipodi:namedview><defs
     id="defs1"><linearGradient
       id="linearGradient64"
       inkscape:collect="always"><stop
         style="stop-color:#deddda;stop-opacity:1;"
         offset="0"
         id="stop65" /><stop
         style="stop-color:#c0bfbc;stop-opacity:1;"
         offset="1"
         id="stop64" /></linearGradient><linearGradient
       id="linearGradient1"
       inkscape:collect="always"><stop
         style="stop-color:#ffa348;stop-opacity:1;"
         offset="0"
         id="stop1" /><stop
         style="stop-color:#813d9c;stop-opacity:1;"
         offset="1"
         id="stop2" /></linearGradient><linearGradient
       inkscape:collect="always"
       xlink:href="#linearGradient1"
       id="linearGradient3"
       gradientUnits="userSpaceOnUse"
       x1="26.36039"
       y1="26.36039"
       x2="153.6396"
       y2="153.6396"
       gradientTransform="matrix(0.77777778,0,0,0.77777778,20,20)" /><linearGradient
       inkscape:collect="always"
       xlink:href="#linearGradient64"
       id="linearGradient65"
       x1="74"
       y1="70.000006"
       x2="106"
       y2="70.000006"
       gradientUnits="userSpaceOnUse" /></defs><g
     inkscape:label="Layer 1"
     inkscape:groupmode="layer"
     id="layer1"><circle
       cx="90"
       cy="90"
       r="90"
       id="path1"
       style="fill:#ffffff" /><circle
       cx="90"
       cy="90"
       r="70"
       id="circle2"
       style="fill:url(#linearGradient3);stroke-width:0.777778" /><path
       id="path61"
       style="color:#000000;fill:#000000;fill-opacity:0.2;stroke-linecap:round;stroke-linejoin:round;-inkscape-stroke:none"
       d="m 115.54492,40.87109 a 16,16 0 0 0 -4.71484,0.80079 16,16 0 0 0 -0.36524,0.0977 l 0.006,0.0195 a 16,16 0 0 0 -4.92773,2.67578 16,16 0 0 0 -0.17969,0.12696 l 0.008,0.0293 a 16,16 0 0 0 -2.92578,3.20899 l -0.002,-0.01 a 16,16 0 0 0 -0.7539,1.05078 l -0.70703,1.22461 -2.58594,4.47852 -1.41406,2.44922 -2.585943,4.47851 -1.414062,2.44922 -2.585938,4.48047 -1.414062,2.44922 -2.585938,4.47852 -1.414062,2.44921 -2.585938,4.47852 -1.414062,2.44922 -2.585938,4.47851 -1.414062,2.44922 -2.585938,4.48047 -1.414062,2.44922 -1.292969,2.23828 a 16,16 0 0 0 -1.173828,2.68945 l -0.01758,-0.0645 a 16,16 0 0 0 -0.07031,0.26367 16,16 0 0 0 -0.341796,1.29102 16,16 0 0 0 -0.259766,1.37305 16,16 0 0 0 3.330078,12.42773 16,16 0 0 0 0.90625,1.05273 16,16 0 0 0 0.953125,0.95899 16,16 0 0 0 0.1875,0.1875 l -0.01758,-0.0625 a 16,16 0 0 0 0.738281,0.54492 L 63.8125,142.47461 a 2,2 0 0 0 0.732422,2.73047 2,2 0 0 0 2.732422,-0.73047 l 12.113281,-20.98047 a 16,16 0 0 0 0.839844,0.36914 l -0.06055,0.0156 a 16,16 0 0 0 0.251953,0.0664 16,16 0 0 0 1.322266,0.35157 16,16 0 0 0 1.33789,0.25195 16,16 0 0 0 12.44336,-3.32813 16,16 0 0 0 1.056642,-0.91015 16,16 0 0 0 0.94922,-0.94336 16,16 0 0 0 0.19336,-0.19141 l -0.0644,0.0176 a 16,16 0 0 0 1.74218,-2.36133 l 1.29297,-2.23828 1.41407,-2.44922 2.58593,-4.48047 1.41407,-2.44922 2.58593,-4.47851 1.41407,-2.44922 2.58593,-4.47852 1.41407,-2.44921 2.58593,-4.47852 1.41407,-2.44922 2.58593,-4.48047 1.41407,-2.44922 2.58593,-4.47851 1.41407,-2.44922 2.58593,-4.47852 0.70703,-1.22461 a 16,16 0 0 0 0.61914,-1.19921 16,16 0 0 0 0.002,-0.002 16,16 0 0 0 1.29101,-4.13281 l 0.006,-0.002 a 16,16 0 0 0 0.006,-0.0664 16,16 0 0 0 0.19531,-1.95508 16,16 0 0 0 0.01,-0.10547 l -0.006,0.002 a 16,16 0 0 0 -0.30664,-3.70313 l 0.006,-0.002 a 16,16 0 0 0 -0.0176,-0.0684 16,16 0 0 0 -0.47851,-1.78125 16,16 0 0 0 -0.0215,-0.082 l -0.006,0.002 A 16,16 0 0 0 129.11366,48.414 l 0.008,-0.002 a 16,16 0 0 0 -0.0684,-0.0957 16,16 0 0 0 -1.12695,-1.56836 16,16 0 0 0 -0.0508,-0.0723 l -0.008,0.002 a 16,16 0 0 0 -4.32227,-3.66211 16,16 0 0 0 -8,-2.14453 z" /><g
       id="g59"
       transform="rotate(30,76.75487,86.639766)"><path
         style="opacity:1;fill:none;fill-opacity:1;stroke:url(#linearGradient65);stroke-width:32;stroke-linecap:round;stroke-linejoin:round;stroke-dasharray:none;stroke-opacity:1"
         d="M 90,40.000003 V 100.00001"
         id="path9"
         sodipodi:nodetypes="cc" /><path
         id="path10"
         style="color:#000000;fill:#9a9996;stroke-linecap:round;stroke-linejoin:round;-inkscape-stroke:none"
         d="M 95.580078,25.005859 90,30.585938 84.457031,25.042969 a 16,16 0 0 0 -1.929687,0.898437 l 6.765625,6.765625 a 1,1 0 0 0 1.414062,0 l 6.820313,-6.820312 a 16,16 0 0 0 -1.947266,-0.88086 z M 100.58203,28.003906 90,38.585938 79.462891,28.048828 a 16,16 0 0 0 -1.414063,1.414063 l 11.244141,11.24414 a 1,1 0 0 0 1.414062,0 L 101.99609,29.417969 a 16,16 0 0 0 -1.41406,-1.414063 z m 3.53125,4.46875 L 90,46.585938 75.941406,32.527344 a 16,16 0 0 0 -0.898437,1.929687 l 14.25,14.25 a 1,1 0 0 0 1.414062,0 L 104.99414,34.419922 a 16,16 0 0 0 -0.88086,-1.947266 z M 105.9375,38.648438 90,54.585938 74.126953,38.712891 A 16,16 0 0 0 74,40 v 1.414062 l 15.292969,15.292969 a 1,1 0 0 0 1.414062,0 L 106,41.414062 V 40 a 16,16 0 0 0 -0.0625,-1.351562 z M 74,46.585938 v 2.828124 l 15.292969,15.292969 a 1,1 0 0 0 1.414062,0 L 106,49.414062 v -2.828124 l -16,16 z m 0,8 v 2.828124 l 15.292969,15.292969 a 1,1 0 0 0 1.414062,0 L 106,57.414062 v -2.828124 l -16,16 z m 0,8 v 2.828124 l 15.292969,15.292969 a 1,1 0 0 0 1.414062,0 L 106,65.414062 v -2.828124 l -16,16 z m 0,8 v 2.828124 l 15.292969,15.292969 a 1,1 0 0 0 1.414062,0 L 106,73.414062 v -2.828124 l -16,16 z m 0,8 v 2.828124 l 15.292969,15.292969 a 1,1 0 0 0 1.414062,0 L 106,81.414062 v -2.828124 l -16,16 z m 0,8 v 2.828124 l 15.292969,15.292968 a 1,1 0 0 0 1.414062,0 L 106,89.414062 V 86.585938 L 90,102.58594 Z m 0,8 v 2.828124 l 15.292969,15.292968 a 1,1 0 0 0 1.414062,0 L 106,97.414062 V 94.585938 L 90,110.58594 Z m 0.28125,8.281252 a 16,16 0 0 0 1.523438,4.35156 l 6.976562,6.97656 a 16,16 0 0 0 4.351562,1.52344 z m 31.4375,0 -12.851562,12.85156 a 16,16 0 0 0 4.351562,-1.52344 l 6.97656,-6.97656 a 16,16 0 0 0 1.52344,-4.35156 z" /><path
         style="opacity:1;fill:none;fill-opacity:1;stroke:#f6f5f4;stroke-width:4;stroke-linecap:round;stroke-linejoin:round;stroke-dasharray:none;stroke-opacity:1"
         d="M 90,40.000003 V 140.00001"
         id="path8" /></g></g></svg>
